USFL
nRows=308
nColumns=2
inDegrees=yes
endheader
time	tib_ant_r	
2.72765	 43.662343	
2.76091	 43.645224	
2.79418	 43.617821	
2.82744	 43.607837	
2.8607	 43.601812	
2.89397	 43.601280	
2.92723	 43.612539	
2.9605	 43.611500	
2.99376	 43.617938	
3.02702	 43.620813	
3.06029	 43.627390	
3.09355	 43.621316	
3.12682	 43.598569	
3.16008	 43.593076	
3.19334	 43.591609	
3.22661	 43.592308	
3.25987	 43.614406	
3.29314	 43.634927	
3.3264	 43.608703	
3.35966	 43.586805	
3.39293	 43.570864	
3.42619	 43.539576	
3.45946	 43.480917	
3.49272	 43.475675	
3.52598	 43.482317	
3.55925	 43.467894	
3.59251	 43.492865	
3.62578	 43.508545	
3.65904	 43.525447	
3.6923	 43.521141	
3.72557	 43.516399	
3.75883	 43.490261	
3.7921	 43.498347	
3.82536	 43.491545	
3.85862	 43.488606	
3.89189	 43.488276	
3.92515	 43.489311	
3.95842	 43.472783	
3.99168	 43.453731	
4.02494	 43.442651	
4.05821	 43.439766	
4.09147	 43.433590	
4.12474	 43.430574	
4.158	 43.419577	
4.19126	 43.412316	
4.22453	 43.407248	
4.25779	 43.398240	
4.29106	 43.393432	
4.32432	 43.396318	
4.35758	 43.409240	
4.39085	 43.403825	
4.42411	 43.408762	
4.45738	 43.439184	
4.49064	 43.437272	
4.5239	 43.417738	
4.55717	 43.424064	
4.59043	 43.431075	
4.6237	 43.414312	
4.65696	 43.405853	
4.69022	 43.388439	
4.72349	 43.392169	
4.75675	 43.383933	
4.79002	 43.400448	
4.82328	 43.387199	
4.85654	 43.383219	
4.88981	 43.381893	
4.92307	 43.401149	
4.95634	 43.415779	
4.9896	 43.379881	
5.02286	 43.367734	
5.05613	 43.348220	
5.08939	 43.324520	
5.12266	 43.343556	
5.15592	 43.342043	
5.18918	 43.352144	
5.22245	 43.404166	
5.25571	 43.380830	
5.28898	 43.367480	
5.32224	 43.369852	
5.3555	 43.331361	
5.38877	 43.396993	
5.42203	 43.331730	
5.4553	 43.339084	
5.48856	 43.402381	
5.52182	 43.387652	
5.55509	 43.437584	
5.58835	 43.544833	
5.62162	 43.531712	
5.65488	 43.523415	
5.68814	 43.561562	
5.72141	 43.471181	
5.75467	 43.503251	
5.78794	 43.420215	
5.8212	 43.413624	
5.85446	 43.396405	
5.88773	 43.349086	
5.92099	 43.253553	
5.95426	 43.210519	
5.98752	 43.181029	
6.02078	 43.208729	
6.05405	 43.230217	
6.08731	 43.010491	
6.12058	 42.962019	
6.15384	 42.897575	
6.1871	 42.781687	
6.22037	 42.753165	
6.25363	 42.705988	
6.2869	 42.684587	
6.32016	 42.660361	
6.35342	 42.528022	
6.38669	 42.528437	
6.41995	 42.520020	
6.45322	 42.439247	
6.48648	 42.388758	
6.51974	 42.319834	
6.55301	 42.201248	
6.58627	 42.136363	
6.61954	 42.101863	
6.6528	 42.021150	
6.68606	 41.939405	
6.71933	 41.853196	
6.75259	 41.760319	
6.78586	 41.798534	
6.81912	 41.770377	
6.85238	 41.729715	
6.88565	 41.723051	
6.91891	 41.648649	
6.95218	 41.685016	
6.98544	 41.655171	
7.0187	 41.482138	
7.05197	 41.426095	
7.08523	 41.366121	
7.1185	 41.334657	
7.15176	 41.260106	
7.18502	 41.244417	
7.21829	 41.236365	
7.25155	 41.247368	
7.28482	 41.273014	
7.31808	 41.304516	
7.35134	 41.341610	
7.38461	 41.305082	
7.41787	 41.345815	
7.45114	 41.256493	
7.4844	 41.154068	
7.51766	 41.181952	
7.55093	 41.177310	
7.58419	 41.143812	
7.61746	 40.995687	
7.65072	 40.937806	
7.68398	 41.021861	
7.71725	 40.957944	
7.75051	 40.982399	
7.78378	 40.978047	
7.81704	 40.960170	
7.8503	 41.012616	
7.88357	 41.036528	
7.91683	 40.991690	
7.9501	 41.118475	
7.98336	 41.061252	
8.01662	 41.048289	
8.04989	 41.117485	
8.08315	 41.028446	
8.11642	 41.014126	
8.14968	 41.118518	
8.18294	 41.066211	
8.21621	 41.019254	
8.24947	 41.067974	
8.28274	 41.004684	
8.316	 41.137996	
8.34926	 41.105555	
8.38253	 41.139403	
8.41579	 41.181656	
8.44906	 41.181582	
8.48232	 41.186551	
8.51558	 41.181447	
8.54885	 41.187090	
8.58211	 41.160804	
8.61538	 41.047124	
8.64864	 40.946611	
8.6819	 40.894932	
8.71517	 40.794065	
8.74843	 40.756917	
8.7817	 40.861566	
8.81496	 40.774388	
8.84822	 40.795939	
8.88149	 40.911881	
8.91475	 40.873198	
8.94802	 40.876296	
8.98128	 40.875572	
9.01454	 40.896592	
9.04781	 40.882476	
9.08107	 40.865004	
9.11434	 40.900806	
9.1476	 40.892357	
9.18086	 40.890362	
9.21413	 40.972690	
9.24739	 40.941394	
9.28066	 40.954986	
9.31392	 40.981482	
9.34718	 40.975082	
9.38045	 40.990877	
9.41371	 41.065975	
9.44698	 41.092327	
9.48024	 41.139775	
9.5135	 41.194400	
9.54677	 41.218096	
9.58003	 41.224615	
9.6133	 41.200265	
9.64656	 41.185231	
9.67982	 41.188690	
9.71309	 41.236421	
9.74635	 41.237157	
9.77962	 41.287239	
9.81288	 41.361409	
9.84614	 41.475964	
9.87941	 41.502314	
9.91267	 41.518589	
9.94594	 41.474627	
9.9792	 41.570761	
10.0125	 41.549523	
10.0457	 41.640373	
10.079	 41.611879	
10.1123	 41.586879	
10.1455	 41.597753	
10.1788	 41.568401	
10.212	 41.561264	
10.2453	 41.601798	
10.2786	 41.590296	
10.3118	 41.698555	
10.3451	 41.743082	
10.3784	 41.725773	
10.4116	 41.742027	
10.4449	 41.731070	
10.4782	 41.729568	
10.5114	 41.742720	
10.5447	 41.743157	
10.578	 41.795481	
10.6112	 41.773060	
10.6445	 41.786741	
10.6777	 41.754535	
10.711	 41.762108	
10.7443	 41.807339	
10.7775	 41.877128	
10.8108	 41.795898	
10.8441	 41.872949	
10.8773	 41.884903	
10.9106	 41.864891	
10.9439	 41.905615	
10.9771	 41.880286	
11.0104	 41.884730	
11.0436	 41.884538	
11.0769	 41.771280	
11.1102	 41.813716	
11.1434	 41.839393	
11.1767	 41.794708	
11.21	 41.858838	
11.2432	 41.968414	
11.2765	 41.936781	
11.3098	 41.988816	
11.343	 41.898459	
11.3763	 41.955393	
11.4096	 42.014325	
11.4428	 42.031782	
11.4761	 42.064067	
11.5093	 42.133731	
11.5426	 42.155612	
11.5759	 42.264725	
11.6091	 42.344732	
11.6424	 42.350198	
11.6757	 42.399725	
11.7089	 42.399701	
11.7422	 42.395835	
11.7755	 42.439186	
11.8087	 42.435698	
11.842	 42.469319	
11.8752	 42.529500	
11.9085	 42.590221	
11.9418	 42.590117	
11.975	 42.656412	
12.0083	 42.721949	
12.0416	 42.736758	
12.0748	 42.747732	
12.1081	 42.775133	
12.1414	 42.783360	
12.1746	 42.797225	
12.2079	 42.802504	
12.2412	 42.825014	
12.2744	 42.853448	
12.3077	 42.851896	
12.3409	 42.854534	
12.3742	 42.845562	
12.4075	 42.871871	
12.4407	 42.879784	
12.474	 42.883204	
12.5073	 42.887206	
12.5405	 42.894140	
12.5738	 42.894539	
12.6071	 42.912776	
12.6403	 42.926611	
12.6736	 42.933428	
12.7068	 42.946268	
12.7401	 42.960143	
12.7734	 42.952854	
12.8066	 42.971158	
12.8399	 42.968185	
12.8732	 42.981381	
12.9064	 42.956332	
12.9397	 42.958602	
